<?xml version="1.0" standalone="no"?>
<!DOCTYPE svg PUBLIC "-//W3C//DTD SVG 20010904//EN"
 "http://www.w3.org/TR/2001/REC-SVG-20010904/DTD/svg10.dtd">
<svg version="1.0" xmlns="http://www.w3.org/2000/svg"
 width="128.000000pt" height="128.000000pt" viewBox="0 0 128.000000 128.000000"
 preserveAspectRatio="xMidYMid meet">
<metadata>
Created by potrace 1.14, written by Peter Selinger 2001-2017
</metadata>
<g transform="translate(0.000000,128.000000) scale(0.100000,-0.100000)"
fill="#000000" stroke="none">
<path d="M1030 1137 c-34 -17 -40 -69 -11 -94 19 -16 21 -29 21 -144 0 -70 -3
-134 -6 -143 -8 -22 -102 -22 -118 -1 -30 42 -95 11 -82 -39 8 -31 49 -45 72
-25 9 7 42 14 73 16 86 3 91 14 91 183 0 125 2 139 20 151 32 23 33 65 3 89
-30 23 -30 23 -63 7z m48 -50 c4 -20 -25 -34 -40 -19 -15 15 -1 44 19 40 10
-2 19 -11 21 -21z"/>
<path d="M156 1109 c-32 -25 -34 -61 -3 -89 16 -16 30 -20 50 -16 23 5 44 -5
111 -53 109 -77 121 -83 173 -84 24 0 48 -6 54 -14 24 -28 79 0 79 40 0 38
-74 55 -87 21 -3 -9 -21 -14 -47 -14 -34 0 -57 11 -138 66 -89 62 -97 69 -92
94 5 21 0 32 -21 49 -34 26 -46 26 -79 0z m66 -45 c-5 -25 -22 -35 -43 -23
-18 9 -19 24 -6 46 12 19 53 -1 49 -23z"/>
<path d="M453 1100 c-12 -5 -26 -17 -31 -26 -11 -20 1 -74 20 -86 25 -15 66
-8 85 15 15 19 27 22 78 21 33 -1 63 -2 68 -3 14 -2 7 -88 -8 -101 -19 -16
-19 -44 1 -64 21 -21 40 -20 64 4 17 17 18 24 8 45 -6 14 -15 25 -20 25 -4 0
-8 22 -8 49 0 65 -18 78 -105 76 -36 0 -65 2 -65 7 0 11 -42 48 -54 47 -6 0
-21 -4 -33 -9z m55 -56 c4 -27 -26 -40 -46 -20 -21 20 -8 48 20 44 14 -2 24
-11 26 -24z"/>
<path d="M504 787 c-24 -18 -24 -22 -24 -183 0 -151 2 -166 20 -184 22 -22 22
-22 135 -22 115 1 113 0 135 22 18 18 20 33 20 184 0 164 0 165 -25 184 -22
17 -40 20 -131 19 -88 -1 -111 -4 -130 -20z"/>
<path d="M156 775 c-36 -37 -27 -88 20 -105 27 -11 51 -2 74 24 17 21 96 21
116 1 20 -19 39 -19 59 1 21 21 16 53 -11 71 -18 12 -24 11 -45 -5 -33 -26
-98 -23 -127 6 -25 25 -64 29 -86 7z m63 -29 c17 -20 3 -46 -25 -46 -39 0 -32
54 7 59 4 1 12 -5 18 -13z"/>
<path d="M230 648 c-27 -30 -25 -62 6 -87 35 -27 49 -26 81 5 23 23 27 24 42
10 34 -31 81 -14 81 29 0 43 -47 60 -81 29 -15 -14 -19 -13 -42 10 -32 32 -60
33 -87 4z m68 -42 c-2 -13 -12 -22 -26 -24 -29 -4 -42 26 -18 44 24 17 48 6
44 -20z"/>
<path d="M1054 645 c-21 -21 -35 -25 -80 -25 -37 0 -61 5 -71 16 -33 33 -82 0
-70 -48 8 -32 39 -41 69 -20 13 10 45 17 73 18 40 1 54 -4 72 -23 27 -28 66
-30 93 -3 25 25 25 51 3 79 -27 32 -61 34 -89 6z m70 -31 c7 -19 -10 -44 -30
-44 -20 0 -36 34 -22 48 17 17 45 15 52 -4z"/>
<path d="M364 516 c-12 -8 -49 -16 -84 -18 -85 -4 -103 -26 -102 -126 0 -62
-3 -72 -24 -91 -29 -25 -31 -64 -4 -91 25 -25 62 -26 84 -1 28 30 28 60 1 87
-22 22 -25 34 -25 92 0 37 4 73 9 81 10 16 131 24 131 9 0 -12 47 -29 64 -22
25 10 36 49 20 73 -18 25 -41 27 -70 7z m-146 -280 c4 -17 -12 -35 -30 -36
-12 0 -29 40 -23 51 11 16 49 6 53 -15z"/>
<path d="M836 511 c-21 -23 -14 -56 15 -72 16 -8 26 -6 47 7 32 21 114 27 138
10 12 -9 17 -31 19 -84 2 -64 0 -73 -21 -91 -29 -25 -31 -64 -4 -91 25 -25 62
-26 84 -1 27 30 28 60 2 86 -20 19 -24 36 -28 105 -6 104 -15 113 -109 118
-48 3 -72 9 -76 18 -8 20 -47 17 -67 -5z m264 -276 c0 -27 -12 -38 -33 -29
-23 8 -28 31 -11 48 20 20 44 9 44 -19z"/>
<path d="M541 346 c-8 -9 -36 -13 -93 -13 -87 -1 -108 -12 -108 -56 0 -11 -11
-30 -25 -43 -42 -39 -26 -100 29 -110 19 -3 33 3 51 20 32 32 32 57 -1 89 -14
14 -24 34 -22 44 3 15 15 18 77 21 59 2 76 0 83 -13 5 -8 22 -15 39 -15 22 0
32 6 39 26 13 32 13 30 -6 48 -19 20 -48 21 -63 2z m-162 -143 c13 -25 -4 -53
-28 -46 -27 7 -33 29 -15 48 20 20 31 19 43 -2z"/>
<path d="M666 344 c-31 -30 -13 -74 30 -74 13 0 29 7 38 15 8 9 33 15 59 15
37 0 46 -4 50 -21 4 -14 -2 -27 -19 -42 -37 -32 -31 -91 11 -107 72 -27 120
65 58 111 -10 8 -19 27 -21 44 -2 16 -9 33 -15 37 -11 7 -76 12 -105 9 -7 -1
-15 5 -18 14 -8 20 -48 19 -68 -1z m212 -133 c21 -13 10 -46 -16 -49 -27 -4
-40 22 -22 43 14 17 20 18 38 6z"/>
</g>
</svg>
